/* XPM */
static const char * on_xpm[] = {
"12 12 3 1",
" 	c None",
".	c #FF4901",
"+	c #FF0000",
"            ",
" .......... ",
" .        . ",
" . ++++++ . ",
" . +    + . ",
" . +    + . ",
" . +    + . ",
" . ++++++ . ",
" .        . ",
" .......... ",
"            ",
"            "};
