/* XPM */
static const char * pulseoff_xpm[] = {
"12 12 3 1",
" 	c None",
".	c #808080",
"+	c #808080",
"            ",
" .......... ",
" .        . ",
" .        . ",
" .        . ",
" .        . ",
" .        . ",
" .  +.    . ",
" . +.     . ",
" . ........ ",
"   +.       ",
"    +.      "};
