/* XPM */
static const char * white_xpm[] = {
"12 12 4 1",
" 	c None",
".	c #E8E6E6",
"+	c #D6D2D2",
"@	c #FEFFCF",
"            ",
"            ",
"   .+@@+.   ",
"  .+@++@+.  ",
"  +@+..+@+  ",
"  @+....+@  ",
"  @+....+@  ",
"  +@+..+@+  ",
"  .+@++@+.  ",
"   .+@@+.   ",
"            ",
"            "};
