<?xml version="1.0" encoding="UTF-8" standalone="no"?>
<!-- Created with Inkscape (http://www.inkscape.org/) -->

<svg
   xmlns:dc="http://purl.org/dc/elements/1.1/"
   xmlns:cc="http://creativecommons.org/ns#"
   xmlns:rdf="http://www.w3.org/1999/02/22-rdf-syntax-ns#"
   xmlns:svg="http://www.w3.org/2000/svg"
   xmlns="http://www.w3.org/2000/svg"
   xmlns:sodipodi="http://sodipodi.sourceforge.net/DTD/sodipodi-0.dtd"
   xmlns:inkscape="http://www.inkscape.org/namespaces/inkscape"
   width="750"
   height="450"
   viewBox="0 0 198.4375 119.0625"
   version="1.1"
   id="svg8"
   inkscape:version="0.92.3 (2405546, 2018-03-11)"
   sodipodi:docname="Butjadingen_flag.svg">
  <defs
     id="defs2">
    <clipPath
       id="clipPath4973-1"
       clipPathUnits="userSpaceOnUse">
      <path
         sodipodi:nodetypes="ccccccccccccccccc"
         inkscape:connector-curvature="0"
         id="path4975-7"
         d="m 339.836,432.24113 c 1.45027,-8.90894 2.59666,-17.0152 3.63119,-23.21985 l 21.82922,-55.30585 c -19.62602,-2.19335 -14.29721,3.12149 -23.61231,2.90419 -5.93874,-9.6759 -19.29173,-1.09528 -26.65749,-0.87571 -2.5911,0.54877 -4.53605,10.49983 -9.45546,15.01784 -2.73259,1.54273 -6.86818,-3.15485 -14.89975,2.52538 -11.38831,-6.54571 -8.74414,-8.77303 -8.74414,-13.63706 0.40689,-7.83029 -2.96323,-16.93119 -0.97858,-19.5717 2.88934,-4.12425 7.37797,2.1053 12.75317,-12.75318 26.97481,-1.87456 6.5752,-29.55629 4.41942,-36.36549 -0.83067,-3.69437 -0.53758,-7.44716 0.37881,-10.35406 -2.90153,0.76 -5.26266,3.07363 -6.81853,7.70241 -0.44271,-3.393 -1.94831,-6.87764 -9.21764,-10.85914 l -5.17704,-10.48033 c -10.31136,15.60456 -9.1862,28.96849 -5.66947,40.12831 -98.56915,75.31486 9.2694,96.90693 68.2186,125.14424 z"
         style="fill:#ffff00;stroke:#b53b3b;stroke-width:1;stroke-linecap:butt;stroke-linejoin:miter;stroke-miterlimit:4;stroke-dasharray:none;stroke-opacity:1" />
    </clipPath>
  </defs>
  <sodipodi:namedview
     id="base"
     pagecolor="#ffffff"
     bordercolor="#666666"
     borderopacity="1.0"
     inkscape:pageopacity="0.0"
     inkscape:pageshadow="2"
     inkscape:zoom="0.98994949"
     inkscape:cx="256.87826"
     inkscape:cy="259.38793"
     inkscape:document-units="mm"
     inkscape:current-layer="g14259"
     showgrid="false"
     fit-margin-top="0"
     fit-margin-left="0"
     fit-margin-right="0"
     fit-margin-bottom="0"
     units="px"
     inkscape:snap-page="true"
     inkscape:window-width="1920"
     inkscape:window-height="991"
     inkscape:window-x="-10"
     inkscape:window-y="-10"
     inkscape:window-maximized="1" />
  <metadata
     id="metadata5">
    <rdf:RDF>
      <cc:Work
         rdf:about="">
        <dc:format>image/svg+xml</dc:format>
        <dc:type
           rdf:resource="http://purl.org/dc/dcmitype/StillImage" />
        <dc:title></dc:title>
      </cc:Work>
    </rdf:RDF>
  </metadata>
  <g
     inkscape:label="Laag 1"
     inkscape:groupmode="layer"
     id="layer1"
     transform="translate(299.40438,11.475821)">
    <g
       id="g955">
      <g
         id="g14259">
        <g
           id="g1065">
          <g
             transform="translate(9.9999999e-6)"
             id="g2411">
            <g
               id="g1702">
              <path
                 inkscape:connector-curvature="0"
                 id="rect938"
                 d="m -299.40439,-11.475821 h 198.4375 V 107.58668 h -198.4375 z"
                 style="opacity:1;vector-effect:none;fill:#fcdd09;fill-opacity:1;stroke:none;stroke-width:1;stroke-linecap:butt;stroke-linejoin:miter;stroke-miterlimit:4;stroke-dasharray:none;stroke-dashoffset:0;stroke-opacity:1;paint-order:normal" />
              <path
                 inkscape:connector-curvature="0"
                 id="rect940"
                 d="m -299.40439,-11.475821 h 198.4375 v 59.53125 h -198.4375 z"
                 style="opacity:1;vector-effect:none;fill:#da121a;fill-opacity:1;stroke:none;stroke-width:0.70710677;stroke-linecap:butt;stroke-linejoin:miter;stroke-miterlimit:4;stroke-dasharray:none;stroke-dashoffset:0;stroke-opacity:1;paint-order:normal" />
            </g>
          </g>
          <g
             id="g922"
             transform="matrix(0.5,0,0,0.5,-22.650225,81.267479)">
            <path
               id="path862-9"
               d="m -283.63325,-152.1491 v 100.01252 a 71.43756,71.437512 0 0 1 -142.87512,0 V -152.1491 Z"
               inkscape:connector-curvature="0"
               style="fill:#fcdd09;fill-opacity:1;stroke:none;stroke-width:3.17499995;stroke-miterlimit:4;stroke-dasharray:none" />
            <path
               style="fill:none;stroke:#da121a;stroke-width:3.17499995;stroke-miterlimit:4;stroke-dasharray:none;stroke-opacity:1"
               inkscape:connector-curvature="0"
               d="m -283.63325,-152.1491 v 100.01252 a 71.43756,71.437512 0 0 1 -142.87512,0 V -152.1491 Z"
               id="path1563" />
            <g
               transform="matrix(0.3225795,0,0,0.3225795,-420.90539,-137.58664)"
               id="g1541">
              <path
                 transform="translate(0,-20)"
                 style="fill:#ffffff;stroke:#000000;stroke-width:2.66568661;stroke-linecap:butt;stroke-linejoin:miter;stroke-miterlimit:4;stroke-dasharray:none"
                 inkscape:connector-curvature="0"
                 d="m 101,141.12 c 2.6833,0.90978 5.4941,1.3097 8.6464,0.34315 3.7436,10.549 6.5536,21.098 6.5303,31.646 -7.9647,0.0423 -15.409,-5.1708 -22.47,-9.6464 0.9194,-5.2772 0.95213,-14.491 7.2929,-22.343 z"
                 stroke-miterlimit="4"
                 id="path1441" />
              <path
                 transform="translate(0,-20)"
                 style="fill:#ffffff;stroke:#000000;stroke-width:2.66568661;stroke-linecap:round;stroke-linejoin:round;stroke-miterlimit:4;stroke-dasharray:none"
                 inkscape:connector-curvature="0"
                 d="m 200.94,6.1057 c -14.81,12.597 -15.03,20.611 -26.23,32.414 -2.1185,2.0185 -1.6267,4.7716 4.2268,4.3344 0.10944,2.065 -2.3784,4.9717 2.5174,5.4856 -4.545,0.78525 -1.5487,3.9777 -3.6014,7.2091 -3.7376,5.8835 1.7791,7.8638 4.0843,7.8599 l 7.7675,-0.01308 -0.62714,7.9576 35.269,0.82843 c -1.65,-21.703 -0.91,-54.384 -23.41,-66.076 z"
                 stroke-miterlimit="4"
                 id="path1443" />
              <path
                 transform="translate(0,-20)"
                 sodipodi:nodetypes="cccscccccccccc"
                 style="fill:#fcdd09;fill-opacity:1;stroke:#000000;stroke-width:2.66568661;stroke-linecap:round;stroke-linejoin:round;stroke-miterlimit:4;stroke-dasharray:none"
                 inkscape:connector-curvature="0"
                 d="m 196.47,7.4757 c 8.2545,-4.3301 21.834,-1.8561 30.781,-1.5815 2.2342,1.0498 0.78436,1.977 0.22852,3.4918 8.35819,3.931994 12.28649,24.890572 17.40776,35.448756 4.47746,9.230878 -0.37039,11.886947 -3.83961,4.695877 1.79629,7.561662 0.91598,10.6431 -0.74208,10.934569 -5.50439,0.969628 -5.74365,-7.459557 -10.15583,-10.983743 11.60245,16.461757 -1.98594,18.210341 -4.71124,6.522741 0.0316,18.92 -6.9089,0.19228 -13.652,-2.7227 7.4829,-1.251 10.209,-15.253 1.6704,-13.677 l -4.24,-10.226 c -1.8969,-5.6908 -5.8116,-14.938 4.2139,-15.392 -4.6074,-1.6249 -14.895,1.1177 -16.96,-6.5096 z"
                 stroke-miterlimit="4"
                 id="path1445" />
              <path
                 transform="translate(0,-20)"
                 sodipodi:nodetypes="ccccccccccc"
                 style="fill:#ffffff;stroke:#000000;stroke-width:2.66568661;stroke-linecap:butt;stroke-linejoin:miter;stroke-miterlimit:4;stroke-dasharray:none"
                 inkscape:connector-curvature="0"
                 d="M -1.1015107,55.936214 C 9.7814671,59.580958 20.664444,58.610476 31.547422,57.691532 L 40.4191,71.3609 c 4.136,-3.592 5.939,-1.922 6.081,3.139 l 97.5,40.5 -7.5,7 -93.236181,-40.80891 c -2.929,4.814 -7.320606,4.66091 -6.513819,-1.19109 l -20.649345,-3 C 14.626287,68.761135 6.772289,62.346498 -1.1013703,55.936072 Z"
                 stroke-miterlimit="4"
                 id="path1447" />
              <path
                 transform="translate(0,-20)"
                 sodipodi:nodetypes="ccccccccccc"
                 style="fill:#ffffff;stroke:#000000;stroke-width:2.66568661;stroke-linecap:round;stroke-linejoin:round;stroke-miterlimit:4;stroke-dasharray:none"
                 inkscape:connector-curvature="0"
                 d="m 240.25,154.5 143.25,62.25 c 1.88834,-1.13497 6.5254,-0.42355 6.7575,3.4794 1.81092,-5.42548 7.80488,-10.84425 20.06968,-5.42338 -8.72699,3.72556 -13.80043,8.34925 -0.97656,16.59587 -14.82909,-0.81909 -13.63367,4.18833 -10.08589,13.38537 -14.03003,-4.65829 -14.33003,-13.59287 -10.82728,-18.24307 -5.85543,2.82996 -6.96348,0.20797 -8.43865,-2.29119 l -142.75,-59.75 c 1.6742,-1.9848 3.2839,-4.0988 3,-10 z"
                 stroke-miterlimit="4"
                 id="path1449" />
              <path
                 transform="translate(0,-20)"
                 style="fill:#ffffff;stroke:#000000;stroke-width:2.66568661;stroke-linecap:round;stroke-linejoin:round;stroke-miterlimit:4;stroke-dasharray:none"
                 inkscape:connector-curvature="0"
                 d="m 302.5,157 c 13.149,4.3728 30.086,26.933 49.5,29.75 7.1968,1.0444 9.3367,17.395 8,24.5 -1.7214,9.1492 -14.211,5.8457 -19.75,4.25 -4.0916,-1.1787 -3.253,-10.401 -12.466,-17.775 -9.429,-7.5475 -16.821,-13.232 -29.034,-17.975 2.3525,-5.6924 2.7283,-13.065 3.75,-22.75 z"
                 stroke-miterlimit="4"
                 id="path1451" />
              <path
                 inkscape:connector-curvature="0"
                 transform="translate(1097.1429,-508.94826)"
                 id="path1453"
                 d="m -940.92188,915.16992 -0.13867,0.0723 -8.48242,1.83789 h -6.06055 l -8.15234,-1.54102 c -4.7952,-0.252 -2.99507,7.34729 -1.23437,11.27149 -3.714,9.693 -16.93471,8.7731 -25.03711,8.07617 -7.504,-0.6455 -15.86286,-7.18262 -21.53126,-0.94922 -5.169,5.685 29.96048,21.70703 35.17188,21.70703 h 20.34375 c -0.096,4.1317 5.66569,2.8033 10.55469,2.875 8.6035,0.1263 11.2596,-0.6669 11.68164,-4.4668 0.5617,-18.1045 -2.59071,-14.69799 -2.89844,-22.24609 -0.17823,-4.37188 2.2563,-9.29648 -3.56836,-8.44531 7.78558,-2.83087 7.05793,-8.86804 -0.64844,-8.1875 1.3e-4,-10e-4 -1.2e-4,-0.003 0,-0.004 z"
                 style="fill:#da121a;fill-opacity:1;stroke:none;stroke-width:2.66568661;stroke-linecap:round;stroke-linejoin:round;stroke-miterlimit:4;stroke-dasharray:none" />
              <path
                 inkscape:connector-curvature="0"
                 transform="translate(1097.1429,-508.94826)"
                 id="path1455"
                 d="m -915.79492,756.88672 -4.95899,11.57422 -4.79882,21.71875 -1.76758,4.79883 -4.04102,-0.25391 -8.33398,-4.79688 -19.46485,-15.67578 c -9.24,11.707 -24.98303,26.9396 -26.11523,32.625 -2.2129,11.112 1.70293,24.12563 5.11523,37.64063 4.996,19.788 14.8481,46.04448 16.4043,71.02148 l 8.15234,1.54102 h 6.06055 l 8.48242,-1.83789 0.13867,-0.0723 c 1.31582,-11.61983 0.81412,-28.19678 3.46876,-39.01172 5.62098,-22.9 -10.7692,-46.5495 -7,-50.8125 13.29098,-15.033 26.84642,-18.2282 36.41992,-31.4082 0.005,0.0179 0.0142,0.0271 0.0195,0.0449 z"
                 style="fill:#3378bb;fill-opacity:1;stroke:none;stroke-width:2.66568661;stroke-linecap:round;stroke-linejoin:round;stroke-miterlimit:4;stroke-dasharray:none" />
              <path
                 inkscape:connector-curvature="0"
                 transform="translate(1097.1429,-508.94826)"
                 id="path1457"
                 d="m -753.40234,856.64453 1.4707,5.12891 -0.88477,6.1875 -4.29297,5.93554 -5.63671,3.98047 c -0.3821,2.8909 0.77689,4.24477 1.51171,5.44727 5.9196,9.687 -1.07851,7.21901 -1.33398,14.91211 -0.416,12.5288 -9.86739,16.40103 -17.93359,19.92773 -6.714,2.9354 2.08178,17.69683 12.05468,9.82813 14.987,-11.826 29.47472,-22.66053 37.13672,-42.51953 3.3684,3.641 8.75487,-4.569 12.03907,-12.3086 1.6469,-3.88108 -1.15063,-3.77119 -2.35743,-4.39453 -1.215,-8.7379 -17.53424,-11.08157 -19.82421,-6.88867 2.48476,-9.16448 -11.90471,-9.61163 -11.94922,-5.23633 z"
                 style="fill:#da121a;fill-opacity:1;stroke:none;stroke-width:2.66568661;stroke-linecap:round;stroke-linejoin:round;stroke-miterlimit:4;stroke-dasharray:none" />
              <path
                 inkscape:connector-curvature="0"
                 transform="translate(1097.1429,-508.94826)"
                 id="path1459"
                 d="m -824.7793,793.65234 -6.07031,4.86133 -9.3457,3.28321 -11.46875,0.94921 -32.19922,1.40235 -0.81445,0.58203 c 8.29406,7.79511 14.5424,11.98678 17.99609,16.9668 3.0011,4.3277 3.32765,8.28365 7.40625,11.00195 9.486,6.32262 16.063,1.96187 26.125,5.60937 6.01,2.179 9.53394,9.39704 23.58594,13.86524 15.606,5.41 31.21236,14.16612 46.81836,25.70312 l 5.63671,-3.98047 4.29297,-5.93554 0.88477,-6.1875 -1.4707,-5.12891 c -2.8e-4,0.0268 -0.0282,0.0432 -0.0274,0.0703 -16.865,-19.577 -29.85247,-36.7264 -55.10547,-47.9414 -6.626,-2.4432 -23.23834,-2.49893 -18.61914,-10.83203 0.74303,-1.34035 2.53218,-2.08474 2.92774,-3.75 z"
                 style="fill:#3378bb;fill-opacity:1;stroke:none;stroke-width:2.66568661;stroke-linecap:round;stroke-linejoin:round;stroke-miterlimit:4;stroke-dasharray:none" />
              <path
                 inkscape:connector-curvature="0"
                 transform="translate(1097.1429,-508.94826)"
                 id="path1461"
                 d="m -908.91992,560.42188 c -11.598,9.76798 -18.35882,6.48123 -26.57422,22.86523 -6.4815,2.597 -15.26982,14.53742 -8.54102,23.26172 -5.024,-11.046 -14.44759,4.03569 -29.68359,15.67969 -2.8701,2.1933 -5.46492,2.50088 -6.66602,4.58398 -3.9677,-0.0543 -8.35426,1.10514 -7.19726,3.49414 1.2732,10.547 2.81706,21.09363 6.41406,31.64063 7.16,14.67 14.01164,13.12921 17.93164,-4.05079 0.488,8.6594 6.10947,1.89123 10.94727,-3.33007 4.3294,-4.672 8.78083,-7.2606 6.86523,-16.625 1.6548,2.70737 3.0654,5.7638 9.25,2 l 3.76953,25.5 c -8.86616,-0.191 -11.6301,7.9214 -9.5,11.5 3.1991,5.3746 8.64,4.5937 10.25,-1.75 0.5136,13.0024 -1.86873,14.04561 -2.76758,22.97461 -1.23752,12.294 0.0197,25.76956 -2.08593,40.72656 -12.7958,13.837 -23.5059,26.85957 -22.65235,35.35937 l 19.46485,15.67578 8.33398,4.79688 4.04102,0.25391 1.76758,-4.79883 4.79882,-21.71875 4.95899,-11.57422 7.78125,37.0957 c 4.05971,13.56769 15.71722,8.27963 22.98047,10.4336 0.13682,0.12952 0.21976,0.18691 0.35547,0.31445 l 0.81445,-0.58203 32.19922,-1.40235 11.46875,-0.94921 9.3457,-3.28321 6.07031,-4.86133 0.55274,0.53907 c 0.15666,-0.65954 0.13838,-1.4344 -0.31641,-2.49219 13.134,10.2555 18.47431,6.33131 30.44531,-4.05469 l 23.66993,17.70899 c -1.4666,0.158 -3.36211,-1.09235 -3.5293,2.09765 6.272,7.4999 18.30852,8.76932 23.16992,3.66992 10.8167,-11.346 0.43277,-20.13598 -3.48633,-23.36328 -4.10422,-2.3186 -2.72248,1.63132 -3.89258,2.66602 l -18.11328,-13.93164 c 4.7739,-2.3092 6.05861,-7.69699 -1.27539,-12.30469 3.851,-1.5624 3.48123,-7.01913 -3.60547,-11.51953 -8.716,-5.535 -21.86308,-15.02395 -28.98046,-21.71875 -18.718,-17.607 -27.50652,-42.25048 -41.9375,-51.26758 -9.85728,-2.925 -9.28517,-4.2341 -10.47657,-13.0957 2.37802,-2.107 2.49685,-7.58035 2.58985,-13.34375 2.8705,-1.822 3.03723,-7.34861 3.16992,-11.90821 4.593,9.2554 4.03832,-2.89706 5.63672,-7.75976 4.432,9.7364 16.74358,11.64267 29.01758,13.07617 -7.2919,-1.7704 -12.06773,-0.0564 -13.23633,6.65234 4.802,8.024 15.26646,13.20847 24.41406,19.88477 7.5584,5.516 10.45403,-1.88968 14.35351,-7.95508 3.92407,-21.6457 2.86674,-23.42759 -0.53124,-26.40039 -5.736,-5.019 -8.31186,-9.24162 -13.94336,-11.82812 -7.0477,-3.237 -13.63794,-16.99642 -16.08594,-15.38282 -1.25781,-3.96136 -10.10972,-16.16536 -12.6836,-12.57812 -0.29217,-10.30148 -9.27792,-16.98102 -20.70117,-22.64453 -4.4934,-8.2464 -8.28602,-10.00617 -12.35742,-15.75977 z"
                 style="fill:#da121a;fill-opacity:1;stroke:none;stroke-width:2.66568661;stroke-linecap:round;stroke-linejoin:round;stroke-miterlimit:4;stroke-dasharray:none" />
              <path
                 sodipodi:nodetypes="ccccccccccccccccccccccccccccccccccc"
                 inkscape:connector-curvature="0"
                 id="path1463"
                 d="m 180.97964,165.79317 11.55162,12.10743 7.11164,-0.57918 5.06036,1.12207 134.27366,103.03207 1.55884,-3.79699 4.64285,2.94643 4.375,5.89285 1.78572,4.46429 -0.89286,4.91071 -1.69643,3.39286 -3.30357,4.19643 -4.91071,1.60714 -5.08929,0.17857 -6.42857,-1.875 -4.28572,-3.125 -1.54561,-1.76566 0.56347,-1.89505 2.96423,-0.20145 -122.31133,-91.45452 -12.0279,-10.19917 -4.52,-11.53 -10.26571,-4.11486 -7.05362,-4.73214 -4.01786,-4.46429 -1.02912,-3.66687 -1.29231,3.75616 -4.55357,1.69643 -3.125,-2.23215 -2.14285,-3.125 0.80357,-5.26785 3.66071,-3.30357 5.89932,-1.27471 6.86854,2.79256 c 3.58418,2.19652 7.06815,4.38707 9.3725,6.50746 z"
                 style="fill:#ffffff;stroke:none;stroke-width:2.66568661;stroke-linecap:butt;stroke-linejoin:miter;stroke-miterlimit:4;stroke-dasharray:none;stroke-opacity:1" />
              <path
                 transform="translate(0,-20)"
                 style="fill:#fcdd09;fill-opacity:1;stroke:#000000;stroke-width:2.66568661;stroke-linecap:round;stroke-linejoin:round;stroke-miterlimit:4;stroke-dasharray:none"
                 inkscape:connector-curvature="0"
                 d="m 165.38,188.01 c 5.0693,7.9645 13.182,12.355 22.475,15.212 l 4.52,11.53 c 4.125,-6.5181 8.25,-11.652 12.375,-16.177 l 6.6339,5 c 0.96452,5.8277 1.9951,11.49 3.6161,15.677 -7.0263,-0.0157 -12.552,0.18298 -17.25,0.5 l 6.75,5.375 12.25,0.125 0.125,8.25 8.5,6.875 c -2.1585,-3.5413 -2.4209,-10.243 -3.625,-15.375 5.2917,-0.29164 12.689,0.46959 15.875,-0.875 -5.6851,7.0184 -8.8067,11.473 -12.25,16.25 l 8,6.375 c 3.7571,-5.1816 6.6961,-10.013 12.625,-16.125 l -0.92678,-39.948 c -9.27,-1.9 -10.25,-5.98 -10.59,-12.9 -19.748,8.7227 -34.947,0.14507 -53.841,7.6036 l 11.889,12.518 c 4.3627,-0.36823 10.347,-1.2039 12.172,0.54289 7.3538,-11.724 16.753,-2.9587 31.414,-11.289 0.54749,11.787 1.2482,22.042 1.4911,36.875 l -5.75,-4.375 -10.668,-0.33211 -1.5947,-8.6161 -8.0696,-6.9268 c -6.2345,5.801 -9.7816,10.834 -13.793,16 l -5.5,-5 -5,7.25 -8.5,-5.5 c 0.7677,-1.6667 1.4136,-3.5101 3.4697,-5.1768 -6.1415,-4.2133 -12.334,-8.9316 -17.854,-11.28 0.83436,-2.6057 1.5677,-6.6509 1.0126,-12.036 z"
                 stroke-miterlimit="4"
                 id="path1465" />
              <path
                 style="fill:none;stroke:#000000;stroke-width:2.66568661;stroke-linecap:round;stroke-linejoin:round;stroke-miterlimit:4;stroke-dasharray:none"
                 inkscape:connector-curvature="0"
                 d="m 213.28,295.2 c 18.677,-2.6887 47.028,3.5931 59.084,-10.495"
                 stroke-miterlimit="4"
                 id="path1467" />
              <path
                 sodipodi:nodetypes="cccccccccccccccccccccccccccccccccccccccccccccccccccccccccccccccccccccccccccccccccccccccccccccccccccc"
                 style="fill:none;stroke:#000000;stroke-width:2.66568661;stroke-linecap:round;stroke-linejoin:round;stroke-miterlimit:4;stroke-dasharray:none"
                 inkscape:connector-curvature="0"
                 d="m 46.525,54.202 c -1.199469,3.255453 -1.925111,4.986931 -3.261081,6.98899 M 40.275,51.2022 c -0.12398,3.1933 -1.4278,6.1387 -3.5502,8.3462 M 19.085515,46.05022 34.462109,52.855521 M 133.5298,406.7286 c 7.3999,2.2962 18.153,2.2337 22.553,-0.43413 m -14.803,40.404 c 8.4806,0.33049 16.806,0.24944 21.98,-1.4038 m 202.52,-68.846 c 3.0192,-3.7309 7.2655,-10.097 9.6998,-16.904 m -19.803,-6.682 c -2.0413,3.7134 -0.98057,8.1767 -3.4467,8.682 m -17.98,7.1841 c 8.5707,-3.7576 12.898,-11.316 9.4801,-21.068 m 39.55,-150.96 -2.5502,7.3462 m -125.7,-63.1 c -0.33613,5.3586 -2.1911,6.9202 -3.8002,9.0962 m -86.2,6.4038 c 4.9445,2.1852 9.7222,3.9533 15.95,9.3462 m 8.1538,119.26 -19.528,-97.504 c 15,38.582 24.916,71.165 37.374,106.75 m -68.809,-28.67 c 10.549,8.1209 31.34,27.779 32.957,17.718 2.2464,-13.979 5.5503,-24.711 10.22,-35.409 m -20.476,-18.135 c 0.56758,7.2726 -1.8087,11.869 -1.591,19.104 m 36.749,-35.456 c 13.067,26.782 21.934,53.564 49.45,80.346 m -21.45,-59.596 c 13.755,16.199 27.712,32.221 48.627,48.419 m -5.1265,-71.919 c 14.927,14.706 27.384,29.682 52.127,44.7 m 19.623,26.3 c 11.394,13.02 1.2917,25.227 -12.55,14.846 m -93.2,-69.721 69.45,51.971 m -65.2,-74.596 83.053,63.346 m -116.43,-62.596 12.45,8.4712 m 2.4252,-22.971 12.575,8.9712 m -50.2,-7.5962 c 6.558,-8.3439 12.061,-17.171 19.873,-27.044 3.0672,2.0528 6.1344,3.4661 9.2016,7.3898 m 20.8,-38.471 c 4.543,2.5582 2.3919,7.844 5.6998,10.846 m -0.19975,-28.846 c 3.6467,5.0994 1.0736,10.643 3.1998,16.846 m 2.3002,-30.846 c 3.248,9.0321 1.0294,15.064 3.1998,22.596 m 52.55,4.1538 c -0.4059,3.5675 2.371,6.7121 -2.3002,10.846 m -25.95,-36.346 c 0.67911,4.14 1.5405,16.122 5.9498,18.846 m -159.2,-4.0962 c 1.9817,8.7827 -2.7538,13.569 0.69975,19.346 m 2.1752,-21.346 c 2.6916,1.9174 0.38317,10.248 5.3248,12.846 m 7.6752,8.0288 c 1.6165,3.9138 0.14264,7.6206 1.1998,12.471 m 55.55,-32.846 c 2.5971,0.51629 5.7379,1.4697 10.575,0.7212 m -4.4498,-4.2212 c 9.3604,-0.4204 10.266,-4.4916 16.325,0.2212 m -17,-14.125 c -1.6263,7.0769 -3.6144,13.832 -8.5122,18.966 4.5458,4.5112 8.729,12.052 14.887,12.409 m -20.45,-7.8462 c 6.0249,4.0737 5.9492,10.998 12.825,12.596 m -13.07,-42.978 c -1.7793,12.622 -5.8688,25.838 -12.942,36.144 10.063,0.88902 10.841,14.162 17.641,11.327 m -23.95,-8.4712 c 18.125,-8.159 34.969,-17.6 48.45,-30.404 m 2.4072,-86.046 c 8.3809,0.88182 8.5752,3.0231 11.314,4.773 m -14.32,-11.503 c 4.4027,0.070894 8.3987,0.43223 9.5459,2.8284 m -10.97,-11.667 c 3.5646,-0.023265 8.4131,1.7548 8.4853,4.4194 m -9.8995,-16.44 c -1.5409,1.5095 -1.8144,2.4986 -0.53032,4.9497 m 28.83225,28.968743 c -3.3073,-2.537799 -5.92415,-5.545416 -9.22789,-14.2991886 M 220.43578,-9.38393 c 1.1448,1.246 2.4508,2.1695 4.0659,2.4749 m -35.1885,50.5582 c 5.5312,0.04977 11.053,0.06508 15.203,-4.9497 m 6.5407,-9.3692 c 2.0022,0.48813 3.1223,-1.0822 3.7123,-3.8891 m -24.04,-10.607 c -1.2437,-2.1483 -6.0149,-1.5052 -2.8882,-4.5276 l 4.656,4.7044 m -3.5355,-9.1924 c 4.2047,0.10106 4.2898,3.4978 6.364,5.3033"
                 stroke-miterlimit="4"
                 id="path1469" />
              <path
                 transform="translate(0,-20)"
                 id="path1471"
                 stroke-miterlimit="4"
                 d="m 224.23,71.691 c 4.0714,5.7536 7.8646,7.5136 12.358,15.76 13.392,6.6396 23.543,14.63 20.117,28.277 -1.5495,-15.6 11.707,2.0326 13.267,6.9457 2.448,-1.6136 9.0393,12.145 16.087,15.382 5.6315,2.5865 8.208,6.81 13.944,11.829 3.398,2.9728 4.4544,4.7533 0.53033,26.399 -3.8995,6.0654 -6.7956,13.471 -14.354,7.955 -9.1476,-6.6763 -19.612,-11.86 -24.414,-19.884 1.1686,-6.7087 5.9451,-8.422 13.237,-6.6516 -12.274,-1.4335 -24.586,-3.3416 -29.018,-13.078 -1.5984,4.8627 -1.0442,17.016 -5.6372,7.7606 -0.13269,4.5596 -0.2977,10.087 -3.1682,11.909 -0.093,5.7634 -0.21298,11.236 -2.591,13.343 1.1914,8.8616 0.61872,10.171 10.476,13.096 14.431,9.0171 23.22,33.661 41.938,51.268 7.1174,6.6948 20.265,16.183 28.981,21.718 7.0867,4.5004 7.4559,9.9576 3.6049,11.52 7.334,4.6077 6.049,9.9958 1.2751,12.305 l 18.113,13.93 c 1.1701,-1.0347 -0.20992,-4.9838 3.8943,-2.6652 3.9191,3.2273 14.302,12.018 3.4853,23.364 -4.8614,5.0994 -16.897,3.8286 -23.169,-3.6713 0.16719,-3.19 2.0611,-1.9385 3.5277,-2.0965 l -23.67,-17.71 c -11.971,10.386 -17.311,14.311 -30.445,4.0555 1.6031,3.7286 -1.5736,4.3714 -2.6109,6.2426 -4.6192,8.3331 11.993,8.3878 18.619,10.831 25.253,11.215 38.241,28.364 55.106,47.941 -0.13349,-4.4615 14.477,-4.0534 11.977,5.1672 2.29,-4.1929 18.608,-1.8488 19.823,6.8891 1.2068,0.62334 4.0057,0.51232 2.3588,4.3934 -3.2842,7.7396 -8.6716,15.949 -12.04,12.308 -7.662,19.859 -22.15,30.695 -37.137,42.521 -9.9729,7.8687 -18.769,-6.893 -12.055,-9.8284 8.0662,-3.5267 17.518,-7.4002 17.934,-19.929 0.25547,-7.6931 7.2545,-5.224 1.3349,-14.911 -0.73485,-1.2025 -1.8938,-2.5568 -1.5117,-5.4477 -15.606,-11.537 -31.212,-20.292 -46.818,-25.702 -14.052,-4.4682 -17.576,-11.687 -23.586,-13.866 -10.062,-3.6475 -16.64,0.71362 -26.126,-5.609 -4.0786,-2.7183 -4.4047,-6.6753 -7.4058,-11.003 -3.5102,-5.0615 -9.8526,-9.2339 -18.352,-17.28 -7.2728,-2.1568 -18.955,3.1553 -23,-10.48 -9.5735,13.18 -23.128,16.376 -36.419,31.409 -3.7692,4.263 12.621,27.913 7,50.813 -2.6549,10.816 -2.1534,27.396 -3.4697,39.016 8.8334,-0.78006 8.5114,7.2716 -3.3087,9.1966 10.878,-3.7525 7.3153,2.272 7.5258,7.4353 0.30773,7.5481 3.4607,4.1425 2.899,22.247 -0.42204,3.7999 -3.0795,4.5924 -11.683,4.4661 -4.889,-0.0717 -10.65,1.2565 -10.554,-2.8752 h -20.343 c -5.2114,0 -40.341,-16.022 -35.172,-21.707 5.6684,-6.2334 14.026,0.30424 21.53,0.94974 8.1024,0.69693 21.323,1.6159 25.037,-8.0771 -1.7607,-3.9242 -3.5599,-11.523 1.2353,-11.271 -1.5562,-24.977 -11.408,-51.233 -16.404,-71.021 -3.4123,-13.515 -7.329,-26.529 -5.1161,-37.641 1.1322,-5.6854 16.876,-20.919 26.116,-32.626 -0.85355,-8.4998 9.8562,-21.522 22.652,-35.359 2.1056,-14.957 0.84846,-28.433 2.086,-40.727 0.89885,-8.929 3.2812,-9.9706 2.7676,-22.973 -1.61,6.3437 -7.0509,7.1246 -10.25,1.75 -2.1301,-3.5786 0.63384,-11.691 9.5,-11.5 l -3.77,-25.5 c -6.1846,3.7638 -7.5952,0.70737 -9.25,-2 1.9156,9.3644 -2.5365,11.952 -6.8659,16.624 -4.8378,5.2213 -10.459,11.99 -10.947,3.3306 -3.92,17.18 -10.77,18.72 -17.93,4.05 -3.597,-10.547 -5.141,-21.094 -6.4142,-31.641 -1.157,-2.389 3.2283,-3.5466 7.196,-3.4923 1.2011,-2.0831 3.7971,-2.3924 6.6672,-4.5857 15.236,-11.644 24.659,-26.725 29.683,-15.679 -6.7288,-8.7243 2.0592,-20.664 8.5407,-23.261 8.2154,-16.384 14.977,-13.097 26.575,-22.865 z"
                 inkscape:connector-curvature="0"
                 style="fill:none;stroke:#000000;stroke-width:2.66568661;stroke-linecap:round;stroke-linejoin:round;stroke-miterlimit:4;stroke-dasharray:none" />
              <path
                 sodipodi:nodetypes="cczc"
                 inkscape:connector-curvature="0"
                 id="path1473"
                 d="m 202.66824,-20.321221 c 20.53683,-10.416364 33.52448,3.642645 38.15443,15.9098195 0,0 -16.87181,12.5340347 -25.41764,9.1494765 -8.54582,-3.3845602 -12.73679,-25.059296 -12.73679,-25.059296 z"
                 style="fill:#da121a;fill-opacity:1;stroke:#000000;stroke-width:2.66568661;stroke-linecap:butt;stroke-linejoin:miter;stroke-miterlimit:4;stroke-dasharray:none;stroke-opacity:1" />
              <path
                 sodipodi:nodetypes="ccccscc"
                 inkscape:connector-curvature="0"
                 id="path1475"
                 d="M 190.53241,-5.6831434 C 213.76349,12.887967 225.3912,13.4821 240.54523,11.50324 c 2.0695,-5.2345118 4.11399,-10.57657885 2.6594,-18.8758174 -6.92072,3.7544348 -16.21352,7.89290778 -25.20861,7.89539024 -0.6265,-0.3746954 3.11315,2.55024426 3.11315,2.55024426 -11.07627,-7.0032379 -17.15406,-20.1376081 -17.57708,-25.7311471 -8.79807,5.375949 -10.4369,10.49125 -12.99968,16.9749466 z"
                 style="fill:#da121a;fill-opacity:1;stroke:#000000;stroke-width:2.66568661;stroke-linecap:round;stroke-linejoin:round;stroke-miterlimit:4;stroke-dasharray:none;stroke-opacity:1" />
              <g
                 style="stroke-width:1.06159663"
                 transform="matrix(0.8840865,0.32501071,-0.3249939,0.8841836,1149.6597,204.51698)"
                 id="g1539">
                <path
                   inkscape:connector-curvature="0"
                   style="opacity:1;vector-effect:none;fill:#3378bb;fill-opacity:1;stroke:none;stroke-width:2.61391568;stroke-linecap:round;stroke-linejoin:round;stroke-miterlimit:4;stroke-dasharray:none;stroke-dashoffset:0;stroke-opacity:1;paint-order:normal"
                   d="m -961.55429,327.43353 a 94.48819,110.87417 0 0 1 -94.48821,110.87417 94.48819,110.87417 0 0 1 -94.4882,-110.87417 94.48819,110.87417 0 0 1 94.4882,-110.87417 94.48819,110.87417 0 0 1 94.48821,110.87417 z"
                   id="path1477" />
                <g
                   id="g1497"
                   style="stroke-width:1.42886567;stroke-miterlimit:4;stroke-dasharray:none"
                   transform="matrix(1.0470195,0,0,1.0861982,50.310254,-27.703048)">
                  <path
                     inkscape:connector-curvature="0"
                     sodipodi:nodetypes="cccccccccccccccccccccccccccccccccccccc"
                     id="path1479"
                     d="m -1090.8824,336.53118 c -22.0979,-0.29136 -21.1912,17.33315 -28.4433,11.26733 -2.2388,-1.6021 1.9787,-7.48983 1.1203,-6.13847 -0.8167,0.37138 -2.3815,2.86678 -2.7445,3.61435 -0.8657,2.93622 0.8144,4.80653 2.8436,5.32055 5.3264,2.35557 16.8034,-10.91692 10.555,-3.59866 -6.4186,6.11293 -2.2988,7.84021 1.4064,17.90784 1.6905,4.29213 -2.2106,5.30052 -4.2066,7.50997 -3.5645,3.27784 -3.7612,3.81049 -7.235,0.85828 -0.7651,-0.55572 -1.5914,-0.73274 -2.4952,-0.64372 -1.365,-0.10782 -2.7943,-0.30942 -4.5716,-0.10728 -1.5777,-0.11719 0.3657,1.77865 1.015,1.917 1.1909,0.24643 1.6435,0.52325 1.7675,1.13252 -2.0406,1.30965 -2.8528,0.17518 -4.6482,2.41418 -0.2349,0.8203 -0.7676,1.61253 -0.9948,2.68999 1.8249,-1.13084 7.4394,-0.76044 4.1224,0.42913 -0.9499,0.11142 -1.6379,1.42952 -1.9349,2.78943 -1.2168,2.29408 -0.771,5.12853 1.5143,2.36027 0.3775,-0.8048 1.4223,-0.62975 2.1864,-0.64372 0.3442,-0.61015 0.1854,-1.17207 1.1223,-0.96556 0.4818,0.91915 -1.5887,2.80014 -2.131,3.86228 -0.4341,0.68856 -0.012,0.66706 -0.2523,1.33436 1.239,0.40429 2.872,-0.20254 3.8699,-1.33436 1.1382,-0.96344 1.8615,-0.90597 3.0287,-1.71657 0.415,-0.89364 1.5734,-0.8535 2.3814,-0.751 0.7994,-0.0873 1.5397,0.14417 2.3298,0.10729 2.3486,-0.92235 2.5241,-2.52651 2.608,-2.89671 0.6508,-0.40462 1.2704,0.2083 1.9062,0.21457 0.8742,0.0958 1.8405,-0.18165 2.216,-1.18013 0.4818,-0.85447 0.7814,-1.30378 1.5985,-1.18015 0.5639,0.2538 1.5262,0.89303 1.91,0.27325 0.2013,-0.73736 0.3474,-2.12787 0.1933,-3.16876 -0.1253,-1.45018 2.2161,-4.04362 2.7762,-5.25816 2.0815,-2.56619 3.6808,-5.84499 1.6826,-9.01197 -2.0147,-2.72679 -1.7673,-5.21133 -1.3807,-9.11899 1.5978,-5.56801 5.7778,-2.06024 9.0664,-2.3285 l 5.7442,-11.02914 z"
                     style="fill:#fcdd09;fill-opacity:1;stroke:#000000;stroke-width:1.42886567;stroke-linecap:butt;stroke-linejoin:miter;stroke-miterlimit:4;stroke-dasharray:none;stroke-opacity:1" />
                  <path
                     inkscape:connector-curvature="0"
                     sodipodi:nodetypes="ccccc"
                     id="path1481"
                     d="m -1089.1879,333.89826 c -4.8681,0.8846 0.9291,4.28643 -0.4967,10.06604 -1.5211,2.96625 -1.0679,3.87816 0.3169,6.03198 l 5.8603,-5.12665 z"
                     style="fill:#fcdd09;fill-opacity:1;stroke:#000000;stroke-width:1.42886567;stroke-linecap:butt;stroke-linejoin:miter;stroke-miterlimit:4;stroke-dasharray:none;stroke-opacity:1" />
                  <path
                     inkscape:connector-curvature="0"
                     sodipodi:nodetypes="ccccccccccccccccccccccccccccccccccccccccccccccccccccccccc"
                     id="path1483"
                     d="m -1076.5995,366.20112 c -0.1817,2.49401 -1.0102,2.66022 2.1021,8.10631 1.8018,1.12725 2.8005,4.01747 2.2753,6.49449 0.1582,2.00222 0.095,4.28503 -1.7169,5.47356 -0.8849,0.64035 -1.6445,1.01061 -1.3949,2.60231 1.5238,3.95927 0.6323,3.93089 0.2146,4.92382 0.5795,4.00795 -1.2818,6.43175 -2.898,3.23716 -0.2245,-0.78276 -0.7248,-3.83078 -1.5015,-3.10032 1.0052,4.44591 -0.2925,8.76472 -4.7213,11.08394 -0.4647,1.78333 -0.2355,3.72787 -1.2164,5.33671 -0.6933,1.1216 -0.3233,3.72549 -0.8232,4.42175 -0.5299,1.60881 -1.9753,-3.46878 -1.8962,-5.01404 -0.2503,-1.13572 -0.4321,-4.75296 -1.1075,-1.73397 -0.8655,2.17436 -0.4782,0.19107 -3.9734,3.65479 0.2494,-0.0419 -2.5389,2.33402 -3.5379,2.86549 -2.6061,1.10013 0.22,-4.18406 0.9313,-4.97011 0.6961,-1.07271 1.0949,-2.74626 2.3952,-2.78172 0.6163,-0.50119 2.8963,-0.16353 1.9098,-1.92283 -2.0942,-0.45428 -3.8439,1.89344 -5.6655,2.74387 -0.9967,0.20372 -3.3312,2.43895 -3.0045,-0.20645 4.1493,-6.91441 2.4246,-5.83036 8.3689,-5.7942 0.037,-1.703 -2.318,-1.28452 -3.111,-0.97813 -0.3951,-1.21626 -1.4098,-0.82508 -2.3348,-0.91192 -5.4265,1.43837 1.8423,-5.05924 5.8487,-2.1675 3.6591,2.89808 5.1351,-4.3824 5.9288,-7.32033 -1.3415,-4.2862 3.2573,-9.36709 1.2877,-10.39975 -2.1081,-0.42886 -3.2549,-3.80935 -3.6483,-6.29458 0.4981,-14.71081 -2.0712,-13.07949 -0.9353,0.70815 -0.095,0.51638 -1.9359,0.9562 -3.5717,1.69941 -3.1838,2.41075 1.1263,5.39326 1.0618,6.64353 -1.7188,-1.15204 -4.2571,-4.01694 -3.1669,-6.13661 1.5758,-2.3906 3.3078,-4.74859 3.3217,-7.57005 -0.2519,-7.49109 -2.7818,-9.66309 0.2594,-15.87229 3.6885,-8.04448 3.4014,-4.5595 3.8573,-9.82573 -1.2194,-3.27077 -2.1042,-11.4659 -3.4915,-14.56448 -1.0363,-2.0165 -1.3262,-4.09141 -1.8416,-5.98597 -0.6986,-1.56906 -3.0748,-3.21015 -3.6117,-4.11609 l 2.7517,-25.01768 13.8495,0.44613 -1.0788,12.95118 c 2.4238,15.26364 2.7373,31.35356 5.1421,34.80402 -0.5139,22.05764 11.3568,19.679 6.0872,4.78936 -9.6969,-14.81163 -8.5154,-31.55057 0.1024,-46.43647 14.8045,-17.09253 -1.5176,-34.50617 1.1155,-8.48285 -0.116,5.22186 -7.3766,8.3534 -6.2941,7.40243 3.8835,-2.58307 3.7832,-6.12024 3.487,-10.96362 -2.4476,-12.02871 9.2004,-17.45834 10.4257,-4.40754 0.093,6.83552 -1.5055,12.31954 -5.4897,16.95954 -14.0715,19.68933 -2.3181,45.50075 -4.5683,19.34399 2.4227,-13.19848 8.9664,-7.38199 8.6107,-22.14858 8.6082,15.86706 -6.9929,18.69858 -7.0615,35.70504 2.6477,15.57201 -0.8223,-16.5138 10.1432,-4.47767 -15.6025,-2.36301 2.9594,38.19659 -14.5109,30.81517 -4.2385,-6.32153 -3.2086,-10.43694 -4.614,-16.91422 -1.1391,-1.14758 -1.3673,0.24532 -1.1804,1.64207 0.5892,4.61618 3.505,10.97802 3.8031,15.64716 -0.3965,3.79042 -0.6615,2.54914 -1.3556,6.20907"
                     style="fill:#fcdd09;fill-opacity:1;stroke:#000000;stroke-width:1.42886567;stroke-linecap:butt;stroke-linejoin:miter;stroke-miterlimit:4;stroke-dasharray:none;stroke-opacity:1" />
                  <path
                     inkscape:connector-curvature="0"
                     id="path1485"
                     d="m -1048.7628,312.43443 c 0.013,-0.38778 0.074,-0.46666 0.1577,-0.20111 0.075,0.2403 0.066,0.5274 -0.021,0.63802 -0.087,0.11061 -0.1484,-0.086 -0.1371,-0.43691 z"
                     style="opacity:0.35740075;fill:#fcdd09;fill-opacity:1;fill-rule:nonzero;stroke:#00e700;stroke-width:1.42886567;stroke-linecap:round;stroke-miterlimit:4;stroke-dasharray:none;stroke-opacity:1" />
                  <path
                     inkscape:connector-curvature="0"
                     sodipodi:nodetypes="ccccccccccccccccccccccccccc"
                     id="path1487"
                     d="m -1115.7615,307.94087 c -7.3272,12.56178 -9.3216,1.14364 -15.1874,-1.88125 -2.8468,1.80143 1.7768,6.94963 3.1096,8.16125 1.4636,4.06211 -4.2497,-3.26673 -5.102,-3.73588 -0.6408,-2.01313 -7.1558,-0.54481 -4.6023,0.94479 2.9273,0.63144 2.3205,6.2333 6.4304,5.98535 1.3919,-0.35673 1.6943,1.92792 0.1245,1.29409 -1.6565,-2.6131 -11.2935,0.6699 -8.0298,1.86928 2.154,0.26911 3.0519,-0.12952 4.0637,1.40377 1.155,0.77944 2.4451,0.927 3.689,0.34246 0.9163,-0.67333 2.05,-0.38126 1.0411,0.63041 -4.5733,1.87875 -5.5573,8.25346 -4.0968,5.0502 5.652,-2.11354 4.3943,0.36971 5.6593,-1.73318 1.0196,-1.55409 2.0256,-2.57845 3.7415,-2.71058 1.4987,-0.237 1.748,0.46495 3.2287,0.77444 -0.4681,1.59656 -1.7987,2.32529 -2.0065,3.67601 0.1938,0.53556 -0.6422,1.68418 4.909,-0.84521 1.2265,-2.94764 2.6331,-3.24412 3.6682,-3.96872 -0.7284,-2.21487 1.9716,-3.45504 1.6161,-1.00208 -0.045,1.96605 -0.449,3.96331 0.074,5.88783 0.7174,2.38402 1.5423,-3.0636 2.3493,-3.78131 1.3833,-1.4242 14.3748,-6.45746 15.877,-7.20675 1.0607,-0.70292 0.3212,-1.34468 1.3361,-2.70448 2.2701,0.7485 3.0848,2.95049 2.4579,0.20773 0.1126,-1.72566 1.614,-3.68961 2.8606,-4.3143 l 0.5634,-15.46432 z"
                     style="fill:#fcdd09;fill-opacity:1;stroke:#000000;stroke-width:1.42886567;stroke-linecap:butt;stroke-linejoin:miter;stroke-miterlimit:4;stroke-dasharray:none;stroke-opacity:1" />
                  <path
                     inkscape:connector-curvature="0"
                     sodipodi:nodetypes="ccccccccccccccccccccccccccccccccccccccc"
                     id="path1489"
                     d="m -1095.5384,283.18822 c -1.6827,-0.63961 -2.4215,-2.46849 -3.1204,-4.26634 -0.3011,-1.82822 -1.0123,-3.73649 -1.5548,-5.44187 -0.6748,-1.8587 -1.7649,-3.40492 -2.4573,-5.26308 -1.1891,-1.87566 -1.3807,-4.586 -1.2427,-7.05579 0.137,-1.18717 -0.333,-2.02827 -0.7766,-2.92662 -0.4918,-1.26046 -1.167,-2.36361 -1.6014,-3.63522 -0.7532,-1.07534 -0.9262,-2.98918 -2.035,-3.52985 -1.0706,-0.28491 -2.5366,-0.11711 -3.6071,-0.402 0.2883,0.34068 0.7863,1.28686 1.1899,1.80485 0.3702,0.46163 0.7732,0.78789 0.7102,1.3825 0.068,0.29718 -0.3866,0.41723 -0.9256,0.50787 -2.1652,-0.8777 -3.8068,-1.51611 -5.9609,0.17335 -1.125,0.72566 -0.078,1.39996 0.5974,1.55141 1.1098,0.81252 2.402,0.18579 2.7149,1.76038 -1.014,0.55518 -2.0111,0.70213 -3.0854,1.00458 -2.2775,1.3109 -3.1395,2.66397 -2.3034,1.91892 -1.7539,1.77089 2.4405,1.46541 3.7362,1.49717 0.4066,-0.15822 1.4922,0.28645 0.351,1.17054 -1.6988,1.35167 -4.9578,4.43026 -1.4807,4.47868 1.034,0.0166 2.5408,-1.39332 2.8886,-1.36308 0.9966,0.0515 1.6003,-0.18585 2.5666,0.21711 0.9361,0.41353 0.2147,2.43355 -0.367,2.75395 -0.9101,0.7716 -1.9123,1.05439 -2.8624,1.71431 -1.2773,0.60112 -2.0764,2.02856 -3.3937,1.98156 0.5249,0.67665 0.9842,0.68883 1.8143,1.06949 0.9535,0.51921 2.0513,0.77221 3.1269,0.83221 0.8261,-0.21395 1.1307,-0.76653 1.9698,-0.48135 0.1147,0.76566 0.1205,1.58626 0.2065,2.40139 -0.2656,1.61148 -0.6426,3.22215 -1.1027,4.81839 -0.07,1.54629 -0.6706,4.51086 0.1044,4.97206 0.6975,0.47224 0.7828,-0.43668 1.0527,-1.20469 0.4272,-0.96526 1.1233,-2.49295 1.9065,-2.70059 0.449,-0.0659 0.6892,0.15236 0.6599,0.68483 0.208,1.27922 0.4146,2.38985 0.1,4.29404 0.7279,0.68754 1.3284,1.60447 0.9192,2.92626 l 4.7464,8.7454 16.1319,-10.79806 z"
                     style="fill:#fcdd09;fill-opacity:1;stroke:#000000;stroke-width:1.42886567;stroke-linecap:butt;stroke-linejoin:miter;stroke-miterlimit:4;stroke-dasharray:none;stroke-opacity:1" />
                  <path
                     inkscape:connector-curvature="0"
                     sodipodi:nodetypes="cccscccccccccccccccccccccccccccccccccccccccccccccccccccccc"
                     id="path1491"
                     d="m -1094.8762,274.12716 c 6.4719,2.03619 7.643,2.18148 9.6772,-0.14398 2.326,-0.76317 5.7111,-13.51951 1.7564,-4.72546 -0.5732,2.56334 -3.0101,3.03987 -8.4529,3.00355 -2.0047,-0.0134 -2.5373,-2.98883 -1.5323,-5.88489 2.7113,4.04236 6.9545,2.48356 9.107,-3.59236 -1.0074,-0.42681 -0.9254,0.27388 -3.0909,0.27622 -2.1065,0.53825 -4.4011,0.91711 -6.4096,1.96361 -0.602,0.91319 -2.6513,1.2589 -3.9918,0.91629 -4.2251,-0.69217 -6.1105,-10.81623 -3.5127,-6.71949 1.2826,2.11415 2.3385,3.21443 4.8699,3.66518 2.0692,-0.50353 4.3649,-3.05268 7.8239,-3.35976 2.4424,-1.06289 2.0207,1.07152 2.954,0.10182 1.2757,-0.16637 0.3981,-1.9113 -0.01,-2.8665 -0.4625,-1.23958 -2.7916,-1.71565 -3.9044,-0.39144 -2.7599,-0.16838 -3.593,3.19136 -4.8095,3.1459 -0.6046,-0.54192 -1.0885,-1.59883 -1.4975,-2.33141 -0.5483,-0.37907 -1.1672,0.31141 -0.9774,-0.85237 -0.2834,-2.74793 1.4368,-4.78879 -0.9387,-5.96894 -1.2111,-0.92603 0.5358,-1.20747 1.1976,-1.8326 0.5955,-0.22448 1.4192,-1.19081 2.3152,-1.22172 0.5431,0.12798 2.4858,-1.71608 3.1934,-2.23983 0.3145,-1.71656 2.2193,-1.92158 3.6703,-2.75416 1.7954,-1.204 4.3257,-0.71154 6.3092,-0.7074 3.0206,-0.43316 4.4772,-0.70182 4.87,-1.52716 2.141,-1.23695 -0.3013,1.1871 0.3216,3.47332 1.1228,3.45187 2.6256,4.90836 4.5484,7.72584 0.7742,0.30825 5.0196,0.73219 1.8362,2.23984 -2.0893,0.97473 -4.5717,-1.39566 -2.395,1.22172 0.986,2.05502 0.9453,5.15243 2.1768,6.94521 1.6308,0.87045 1.7112,2.25393 -0.2608,2.01412 -1.1076,-0.69724 -2.8737,-1.86983 -1.916,0.40724 1.2574,2.79833 -0.7275,7.73693 1.916,9.16296 0.5768,0.25398 -0.3435,2.07028 0.08,2.64707 -3.631,2.50676 -3.9381,-4.27026 -4.5507,-4.58148 -0.1238,6.85502 2.9285,7.19288 -0.2395,17.00238 -0.7693,2.50634 0.7002,4.68816 2.2345,6.09349 -1.4527,2.8771 -4.3183,-0.44308 -4.4699,-2.93737 0.4259,6.66056 -1.1552,7.62247 -1.6541,11.25145 -0.3167,2.14922 2.3362,4.09912 2.1331,4.42738 -2.6805,0.10314 -8.4325,1.32974 -4.1515,-9.06114 -0.284,-3.94537 -5.2713,9.89537 -6.0675,12.72632 0.7072,2.10938 2.0946,5.18501 -0.5588,1.62897 -5.8983,-1.51885 -6.3152,-5.35115 -4.6305,-12.21727 1.0265,-4.36152 -1.4365,-1.57258 -4.87,1.62897 -5.5009,5.48255 -16.4433,-0.62444 -11.8157,-2.23983 1.455,-0.10563 2.7184,1.38928 4.9918,-0.91438 1.2477,-2.88173 5.7338,-5.55039 7.7569,-6.5527 -5.2329,-0.47689 -9.6634,9.3801 -14.2656,2.37655 -0.8814,-2.55053 1.3652,-1.72274 2.5146,-1.64826 5.7552,0.19307 6.5194,-5.64695 11.3768,-5.37667 -0.093,-1.71977 -1.1599,-0.59662 -2.3213,-0.81448 -6.075,0.97403 -8.9688,3.34685 -12.3685,-4.47967 -3.5187,-5.7915 10.7526,4.36588 12.9217,-1.30751 -3.6968,0.10105 -10.0461,-2.49388 -8.0789,-6.6458 2.9027,-5.77302 2.689,-5.42709 2.0112,-2.47485 0.1522,7.54351 7.2708,2.73406 9.1759,2.32548 z"
                     style="display:inline;fill:#fcdd09;fill-opacity:1;stroke:#000000;stroke-width:1.42886567;stroke-linecap:butt;stroke-linejoin:miter;stroke-miterlimit:4;stroke-dasharray:none;stroke-opacity:1" />
                  <path
                     inkscape:connector-curvature="0"
                     sodipodi:nodetypes="cccscscccc"
                     id="path1493"
                     d="m -1091.2276,245.21688 c 0.3565,1.4464 -0.5091,1.84531 -0.909,2.69809 -0.8344,2.46341 2.0846,0.8085 3.014,0.32761 1.8246,-3.79169 3.9259,1.02834 4.9037,1.86347 2.3119,1.97447 4.7582,3.07165 -0.4946,1.63696 -0.2333,-0.1318 -0.8556,0.5065 -1.8535,0.6244 -2.2485,0.26567 -4.127,0.17562 -2.238,-2.36733 2.3407,-2.63871 5.1839,1.00981 2.677,1.16491 -0.3954,0.61948 -1.6901,0.73991 -2.2826,-0.12003 -0.3868,-0.60668 0.794,-1.09191 1.4088,-1.58479"
                     style="display:inline;fill:#fcdd09;fill-opacity:1;stroke:#000000;stroke-width:1.42886567;stroke-linecap:butt;stroke-linejoin:miter;stroke-miterlimit:4;stroke-dasharray:none;stroke-opacity:1" />
                  <path
                     inkscape:connector-curvature="0"
                     sodipodi:nodetypes="cc"
                     id="path1495"
                     d="m -1085.0588,258.56125 c 0.5937,1.38937 1.031,2.60121 0.7879,4.22872"
                     style="fill:#fcdd09;fill-opacity:1;stroke:#000000;stroke-width:1.42886567;stroke-linecap:butt;stroke-linejoin:miter;stroke-miterlimit:4;stroke-dasharray:none;stroke-opacity:1" />
                </g>
                <path
                   inkscape:connector-curvature="0"
                   style="opacity:1;vector-effect:none;fill:#fcdd09;fill-opacity:1;stroke:none;stroke-width:1.06159663;stroke-linecap:round;stroke-linejoin:round;stroke-miterlimit:4;stroke-dasharray:none;stroke-dashoffset:0;stroke-opacity:1;paint-order:normal"
                   d="m -2109.9414,836.38086 v 98.46875 a 94.488187,110.87416 0 0 0 51.2441,-98.4668 94.488187,110.87416 0 0 0 0,-0.002 z"
                   id="path1499"
                   transform="translate(1097.1429,-508.94826)" />
                <path
                   inkscape:connector-curvature="0"
                   style="opacity:1;vector-effect:none;fill:#fcdd09;fill-opacity:1;stroke:none;stroke-width:1.06159663;stroke-linecap:round;stroke-linejoin:round;stroke-miterlimit:4;stroke-dasharray:none;stroke-dashoffset:0;stroke-opacity:1;paint-order:normal"
                   d="m -2109.9414,737.83008 a 94.488187,110.87416 0 0 0 -43.2441,-12.32227 v 110.87305 h 43.2441 z"
                   id="path1501"
                   transform="translate(1097.1429,-508.94826)" />
                <path
                   style="fill:#fcdd09;fill-opacity:1;fill-rule:evenodd;stroke:#000000;stroke-width:1.74146712;stroke-linecap:round;stroke-linejoin:round;stroke-miterlimit:4;stroke-dasharray:none"
                   d="m -1037.3843,421.02998 c 0,5.55718 -2.9638,4.07527 -2.9638,0.74095 -4.8163,3.7048 0.741,12.22582 5.9277,6.29815 5.1867,5.92767 10.7439,-2.59335 5.9276,-6.29815 0,3.33432 -2.9638,4.81623 -2.9638,-0.74095 l -10e-5,-37.49916 h 6.6687 c 5.5571,0 4.0752,2.96384 0.741,2.96384 3.7046,4.81623 12.2257,-0.74096 6.2981,-5.92767 5.9276,-5.18671 -2.5935,-10.74389 -6.2981,-5.92766 3.3342,0 4.8161,2.96383 -0.741,2.96383 h -6.6687 v -37.49813 c 0,-5.55719 2.9638,-4.07526 2.9638,-0.74096 4.8163,-3.70479 -0.7409,-12.22581 -5.9276,-6.29814 -5.1867,-5.92767 -10.744,2.59335 -5.9277,6.29814 0,-3.3343 2.9638,-4.81623 2.9638,0.74096 v 37.49813 h -6.6687 c -5.5571,0 -4.0751,-2.96383 -0.7409,-2.96383 -3.7047,-4.81623 -12.2258,0.74095 -6.2981,5.92766 -5.9277,5.18671 2.5934,10.7439 6.2981,5.92767 -3.3342,0 -4.8162,-2.96384 0.7409,-2.96384 h 6.6687 z"
                   id="path1503"
                   inkscape:connector-curvature="0"
                   sodipodi:nodetypes="scccscscccscscccscscccscs" />
                <path
                   sodipodi:nodetypes="scccscscccscscccscscccscs"
                   inkscape:connector-curvature="0"
                   id="path1505"
                   d="m -994.50861,315.8114 c 3e-5,5.55718 -2.9638,4.07527 -2.9638,0.74095 -4.81629,3.7048 0.741,12.22582 5.9277,6.29815 5.1867,5.92767 10.7439,-2.59335 5.9276,-6.29815 0,3.33432 -2.96377,4.81623 -2.9638,-0.74095 l -10e-5,-21.49916 h 6.6687 c 5.5571,0 4.0752,2.96384 0.741,2.96384 3.7046,4.81623 12.2257,-0.74096 6.2981,-5.92767 5.9276,-5.18671 -2.5935,-10.74389 -6.2981,-5.92766 3.3342,0 4.8161,2.96383 -0.741,2.96383 h -6.6687 v -21.49813 c 0,-5.55719 2.9638,-4.07526 2.9638,-0.74096 4.8163,-3.70479 -0.7409,-12.22581 -5.9276,-6.29814 -5.1867,-5.92767 -10.74399,2.59335 -5.9277,6.29814 0,-3.3343 2.9638,-4.81623 2.9638,0.74096 v 21.49813 h -6.66869 c -5.5571,0 -4.0751,-2.96383 -0.7409,-2.96383 -3.7047,-4.81623 -12.2258,0.74095 -6.2981,5.92766 -5.9277,5.18671 2.5934,10.7439 6.2981,5.92767 -3.3342,0 -4.8162,-2.96384 0.7409,-2.96384 h 6.66869 z"
                   style="fill:#fcdd09;fill-opacity:1;fill-rule:evenodd;stroke:#000000;stroke-width:1.74146712;stroke-linecap:round;stroke-linejoin:round;stroke-miterlimit:4;stroke-dasharray:none" />
                <path
                   inkscape:connector-curvature="0"
                   style="opacity:1;vector-effect:none;fill:#da121a;fill-opacity:1;stroke:none;stroke-width:1.06159663;stroke-linecap:round;stroke-linejoin:round;stroke-miterlimit:4;stroke-dasharray:none;stroke-dashoffset:0;stroke-opacity:1;paint-order:normal"
                   d="m -2153.1855,795.35742 v 20.51172 h 43.2441 v -20.51172 z"
                   id="path1507"
                   transform="translate(1097.1429,-508.94826)" />
                <path
                   inkscape:connector-curvature="0"
                   style="opacity:1;vector-effect:none;fill:#da121a;fill-opacity:1;stroke:none;stroke-width:1.06159663;stroke-linecap:round;stroke-linejoin:round;stroke-miterlimit:4;stroke-dasharray:none;stroke-dashoffset:0;stroke-opacity:1;paint-order:normal"
                   d="m -2153.1855,754.33594 v 20.50976 h 43.2441 v -20.50976 z"
                   id="path1509"
                   transform="translate(1097.1429,-508.94826)" />
                <path
                   inkscape:connector-curvature="0"
                   style="opacity:1;vector-effect:none;fill:#da121a;fill-opacity:1;stroke:none;stroke-width:2.61391568;stroke-linecap:round;stroke-linejoin:round;stroke-miterlimit:4;stroke-dasharray:none;stroke-dashoffset:0;stroke-opacity:1;paint-order:normal"
                   d="m -2069.498,887.36914 h -40.4434 v 16.99609 h 31.1894 a 94.488185,110.87416 0 0 0 9.254,-16.99609 z"
                   id="path1511"
                   transform="translate(1097.1429,-508.94826)" />
                <path
                   inkscape:connector-curvature="0"
                   style="opacity:1;vector-effect:none;fill:#da121a;fill-opacity:1;stroke:none;stroke-width:2.61391568;stroke-linecap:round;stroke-linejoin:round;stroke-miterlimit:4;stroke-dasharray:none;stroke-dashoffset:0;stroke-opacity:1;paint-order:normal"
                   d="m -2060.0488,853.37695 h -49.8926 v 16.9961 h 46.4473 a 94.488183,110.87416 0 0 0 3.4453,-16.9961 z"
                   id="path1513"
                   transform="translate(1097.1429,-508.94826)" />
                <path
                   style="fill:none;stroke:#000000;stroke-width:2.17683387;stroke-linecap:butt;stroke-linejoin:miter;stroke-miterlimit:4;stroke-dasharray:none;stroke-opacity:1"
                   d="M -1056.0425,216.55955 V 438.30769"
                   id="path1515"
                   inkscape:connector-curvature="0" />
                <path
                   style="fill:none;stroke:#000000;stroke-width:2.17683387;stroke-linecap:butt;stroke-linejoin:miter;stroke-miterlimit:4;stroke-dasharray:none;stroke-opacity:1"
                   d="m -1056.0425,327.43259 h 94.4882"
                   id="path1517"
                   inkscape:connector-curvature="0" />
                <path
                   style="fill:none;stroke:#000000;stroke-width:2.17683387;stroke-linecap:butt;stroke-linejoin:miter;stroke-miterlimit:4;stroke-dasharray:none;stroke-opacity:1"
                   d="M -1012.7984,228.88182 V 425.90134"
                   id="path1519"
                   inkscape:connector-curvature="0" />
                <path
                   style="fill:none;stroke:#000000;stroke-width:2.17683387;stroke-linecap:butt;stroke-linejoin:miter;stroke-miterlimit:4;stroke-dasharray:none;stroke-opacity:1"
                   d="m -1012.7984,344.42868 h 49.8926"
                   id="path1521"
                   inkscape:connector-curvature="0" />
                <path
                   style="fill:none;stroke:#000000;stroke-width:2.17683387;stroke-linecap:butt;stroke-linejoin:miter;stroke-miterlimit:4;stroke-dasharray:none;stroke-opacity:1"
                   d="m -1012.7984,361.42478 h 46.4473"
                   id="path1523"
                   inkscape:connector-curvature="0" />
                <path
                   style="fill:none;stroke:#000000;stroke-width:2.17683387;stroke-linecap:butt;stroke-linejoin:miter;stroke-miterlimit:4;stroke-dasharray:none;stroke-opacity:1"
                   d="m -1012.7984,378.42087 h 40.4434"
                   id="path1525"
                   inkscape:connector-curvature="0" />
                <path
                   style="fill:none;stroke:#000000;stroke-width:2.17683387;stroke-linecap:butt;stroke-linejoin:miter;stroke-miterlimit:4;stroke-dasharray:none;stroke-opacity:1"
                   d="m -1012.7984,395.41696 h 31.1894"
                   id="path1527"
                   inkscape:connector-curvature="0" />
                <path
                   style="fill:none;stroke:#000000;stroke-width:2.17683387;stroke-linecap:butt;stroke-linejoin:miter;stroke-miterlimit:4;stroke-dasharray:none;stroke-opacity:1"
                   d="m -1056.0425,306.92087 h 43.2441"
                   id="path1529"
                   inkscape:connector-curvature="0" />
                <path
                   style="fill:none;stroke:#000000;stroke-width:2.17683387;stroke-linecap:butt;stroke-linejoin:miter;stroke-miterlimit:4;stroke-dasharray:none;stroke-opacity:1"
                   d="m -1056.0425,286.40915 h 43.2441"
                   id="path1531"
                   inkscape:connector-curvature="0" />
                <path
                   style="fill:none;stroke:#000000;stroke-width:2.17683387;stroke-linecap:butt;stroke-linejoin:miter;stroke-miterlimit:4;stroke-dasharray:none;stroke-opacity:1"
                   d="m -1056.0425,265.89743 h 43.2441"
                   id="path1533"
                   inkscape:connector-curvature="0" />
                <path
                   style="fill:none;stroke:#000000;stroke-width:2.17683387;stroke-linecap:butt;stroke-linejoin:miter;stroke-miterlimit:4;stroke-dasharray:none;stroke-opacity:1"
                   d="m -1056.0425,245.38768 h 43.2441"
                   id="path1535"
                   inkscape:connector-curvature="0" />
                <path
                   inkscape:connector-curvature="0"
                   style="opacity:1;vector-effect:none;fill:none;fill-opacity:1;stroke:#000000;stroke-width:2.82988405;stroke-linecap:round;stroke-linejoin:round;stroke-miterlimit:4;stroke-dasharray:none;stroke-dashoffset:0;stroke-opacity:1;paint-order:normal"
                   d="m -961.55429,327.43353 a 94.48819,110.87417 0 0 1 -94.48821,110.87417 94.48819,110.87417 0 0 1 -94.4882,-110.87417 94.48819,110.87417 0 0 1 94.4882,-110.87417 94.48819,110.87417 0 0 1 94.48821,110.87417 z"
                   id="path1537" />
              </g>
            </g>
          </g>
        </g>
      </g>
    </g>
  </g>
</svg>
